<svg xmlns:xlink="http://www.w3.org/1999/xlink" xmlns="http://www.w3.org/2000/svg" aria-hidden="true" viewBox="0 0 28 28" width="28"  height="28" ><defs><symbol id="tcl-car" data-name="Car" fill="none" viewBox="0 0 28 28" xmlns="http://www.w3.org/2000/svg">
		<path fill="#171A20" fill-rule="evenodd" clip-rule="evenodd" d="M17.28 7.705a39.5 39.5 0 0 0-6.56 0l-1.036.087a2 2 0 0 0-1.731 1.36l-.76 2.28h13.614l-.76-2.28a2 2 0 0 0-1.731-1.36l-1.036-.087ZM22 11.931l.8.6a3 3 0 0 1 1.2 2.4v4.377c0 .58-.057 1.16-.171 1.73a.49.49 0 0 1-.48.393h-2.115a.323.323 0 0 1-.306-.223 5.158 5.158 0 0 1-.243-1.277H7.315a5.16 5.16 0 0 1-.243 1.277.322.322 0 0 1-.306.223H4.652a.49.49 0 0 1-.48-.394A8.817 8.817 0 0 1 4 19.308v-4.377a3 3 0 0 1 1.2-2.4l.717-.537.065-.063h-.348a4 4 0 0 1-1.237-.196l-.169-.055A.33.33 0 0 1 4 11.366v-.133a.73.73 0 0 1 .214-.516c.187-.187.422-.32.679-.384L5 10.306l.469-.067a.4.4 0 0 1 .453.35l.078.667h.198l.806-2.42a3 3 0 0 1 2.597-2.041l1.036-.086a40.502 40.502 0 0 1 6.726 0l1.036.086a3 3 0 0 1 2.597 2.041l.806 2.42H22l.078-.667a.4.4 0 0 1 .454-.35l.468.067.108.027c.256.064.49.197.678.384a.73.73 0 0 1 .214.516v.133a.33.33 0 0 1-.228.314l-.17.055a4 4 0 0 1-1.236.196H22ZM5.391 13.318l-.013.018a1.82 1.82 0 0 0-.335 1.498l.017.075a.383.383 0 0 0 .315.283l1.363.245c.57.103 1.162.054 1.702-.14l.12-.043c.152-.055.205-.225.106-.343l-.084-.101A2.675 2.675 0 0 0 7.38 14a1.848 1.848 0 0 1-.49-.25l-.423-.305a1.387 1.387 0 0 0-.807-.254.335.335 0 0 0-.268.127Zm17.231.018-.013-.018a.334.334 0 0 0-.268-.127c-.293 0-.578.09-.807.254l-.424.305c-.147.105-.312.19-.489.25a2.675 2.675 0 0 0-1.203.81l-.084.1c-.1.119-.046.289.107.344l.119.043c.54.194 1.132.243 1.702.14l1.363-.245a.383.383 0 0 0 .315-.283l.017-.075a1.82 1.82 0 0 0-.335-1.498Z"></path>
	</symbol></defs>
      <use href="#tcl-car"></use>
    </svg>