<svg xmlns:xlink="http://www.w3.org/1999/xlink" xmlns="http://www.w3.org/2000/svg" aria-hidden="true" viewBox="0 0 28 28" width="28"  height="28" ><defs><symbol id="tds-icon-ac" viewBox="0 0 24 24" xmlns="http://www.w3.org/2000/svg">
    <path fill="#393C41" d="M12.75 2.75a.75.75 0 0 0-1.5 0v4.19L8.53 4.22a.75.75 0 0 0-1.06 1.06l3.78 3.78v2.19H9.06L5.28 7.47a.75.75 0 0 0-1.06 1.06l2.72 2.72H2.75a.75.75 0 0 0 0 1.5h4.19l-2.72 2.72a.75.75 0 1 0 1.06 1.06l3.78-3.78h2.19v2.19l-3.78 3.78a.75.75 0 1 0 1.06 1.06l2.72-2.72v4.19a.75.75 0 0 0 1.5 0v-4.19l2.72 2.72a.75.75 0 1 0 1.06-1.06l-3.78-3.78v-2.19h2.19l3.78 3.78a.75.75 0 1 0 1.06-1.06l-2.72-2.72h4.19a.75.75 0 0 0 0-1.5h-4.19l2.72-2.72a.75.75 0 0 0-1.06-1.06l-3.78 3.78h-2.19V9.06l3.78-3.78a.75.75 0 0 0-1.06-1.06l-2.72 2.72V2.75Z"></path>
  </symbol></defs>
      <use href="#tds-icon-ac"></use>
    </svg>